<svg width="156" height="136" viewBox="0 0 156 136" fill="none" xmlns="http://www.w3.org/2000/svg">
<mask id="mask0_64_363" style="mask-type:alpha" maskUnits="userSpaceOnUse" x="30" y="1" width="117" height="134">
<path d="M84.5239 2.85829C87.0174 1.40134 90.1025 1.40134 92.596 2.85829L142.356 31.9338C144.811 33.3682 146.32 35.9978 146.32 38.8411V97.1589C146.32 100.002 144.811 102.632 142.356 104.066L92.596 133.142C90.1025 134.599 87.0174 134.599 84.5239 133.142L34.7638 104.066C32.3089 102.632 30.7998 100.002 30.7998 97.1589V38.8411C30.7998 35.9978 32.3089 33.3682 34.7638 31.9338L84.5239 2.85829Z" fill="#0CAF60"/>
</mask>
<g mask="url(#mask0_64_363)">
<path d="M84.5239 2.85829C87.0174 1.40134 90.1025 1.40134 92.596 2.85829L142.356 31.9338C144.811 33.3682 146.32 35.9978 146.32 38.8411V97.1589C146.32 100.002 144.811 102.632 142.356 104.066L92.596 133.142C90.1025 134.599 87.0174 134.599 84.5239 133.142L34.7638 104.066C32.3089 102.632 30.7998 100.002 30.7998 97.1589V38.8411C30.7998 35.9978 32.3089 33.3682 34.7638 31.9338L84.5239 2.85829Z" fill="#F67F20"/>
<path d="M185.863 28.6224H79.4507C76.7305 28.6224 74.5254 30.8542 74.5254 33.6072V106.789C74.5254 109.542 76.7305 111.773 79.4507 111.773H185.863C188.583 111.773 190.789 109.542 190.789 106.789V33.6072C190.789 30.8542 188.583 28.6224 185.863 28.6224Z" fill="white"/>
<path d="M182.304 31.4496H83.0449C80.5294 31.4496 78.4902 33.5134 78.4902 36.0592V103.156C78.4902 105.702 80.5294 107.766 83.0449 107.766H182.304C184.82 107.766 186.859 105.702 186.859 103.156V36.0592C186.859 33.5134 184.82 31.4496 182.304 31.4496Z" fill="#F67F20"/>
<path d="M193.098 110.991H69.641C67.2046 110.991 65.2295 112.99 65.2295 115.456V115.939C65.2295 118.405 67.2046 120.404 69.641 120.404H193.098C195.534 120.404 197.509 118.405 197.509 115.939V115.456C197.509 112.99 195.534 110.991 193.098 110.991Z" fill="white"/>
<path d="M193.098 110.991H69.641C67.2046 110.991 65.2295 112.99 65.2295 115.456V115.939C65.2295 118.405 67.2046 120.404 69.641 120.404H193.098C195.534 120.404 197.509 118.405 197.509 115.939V115.456C197.509 112.99 195.534 110.991 193.098 110.991Z" fill="#F67F20"/>
<path d="M145.113 111.076H118.276V113.865H145.113V111.076Z" fill="#F67F20"/>
</g>
<g filter="url(#filter0_d_64_363)">
<path d="M114.125 43.0905V85.1091C114.125 86.5782 113.55 87.9873 112.525 89.0277C111.5 90.068 110.109 90.6546 108.657 90.6588H24.1427C23.4231 90.6588 22.7106 90.5152 22.046 90.2361C21.3813 89.9571 20.7776 89.5481 20.2693 89.0326C19.7611 88.5171 19.3583 87.9052 19.084 87.2319C18.8097 86.5587 18.6693 85.8373 18.6709 85.1091V43.0905C18.6709 41.6218 19.2474 40.2132 20.2736 39.1747C21.2997 38.1362 22.6915 37.5527 24.1427 37.5527H108.657C110.107 37.5559 111.497 38.1405 112.522 39.1785C113.546 40.2164 114.123 41.6231 114.125 43.0905Z" fill="white"/>
<path d="M90.2207 89.5708L106.895 100.625V87.1245L90.2207 89.5708Z" fill="white"/>
</g>
<path d="M66.3189 48.3276C66.0726 48.4173 65.8014 48.4068 65.5625 48.2983C65.3237 48.1897 65.1357 47.9917 65.0382 47.7457L64.0787 45.1655C63.8044 44.4608 63.267 43.8938 62.5828 43.5871C61.8986 43.2804 61.1226 43.2586 60.4227 43.5266C59.7227 43.7945 59.1552 44.3306 58.8429 45.0188C58.5305 45.707 58.4984 46.492 58.7536 47.204L60.0819 50.7554C60.1033 50.8139 60.1192 50.8744 60.1295 50.9359H58.028L56.898 47.9143C56.4703 46.7079 56.528 45.3798 57.0585 44.216C57.589 43.0522 58.55 42.1459 59.7345 41.6923C60.9189 41.2387 62.232 41.2741 63.3909 41.7909C64.5498 42.3077 65.4618 43.2645 65.9303 44.4552L66.8939 47.0314C66.9404 47.1547 66.9624 47.2861 66.9587 47.418C66.955 47.55 66.9256 47.6799 66.8722 47.8003C66.8188 47.9207 66.7424 48.0292 66.6475 48.1197C66.5525 48.2102 66.4409 48.2808 66.3189 48.3276Z" fill="#F67F20"/>
<path d="M69.4148 50.9622H56.3896V63.1412H69.4148V50.9622Z" fill="#F67F20"/>
<path d="M69.3926 50.9359H61.2246V63.1149H69.3926V50.9359Z" fill="#F67F20"/>
<path d="M62.5933 56.6443C62.5933 56.6443 61.3087 55.5608 62.4308 54.6379C63.5529 53.7149 64.8098 55.6411 63.6203 56.6443L64.4569 58.9035H61.6338L62.5933 56.6443Z" fill="white"/>
<path d="M98.1855 67.3018C99.5974 67.3018 100.74 68.4598 100.74 69.8857V76.9717C100.74 78.3976 99.5974 79.5557 98.1855 79.5557H33.5C32.0883 79.5555 30.9463 78.3975 30.9463 76.9717V69.8857C30.9463 68.4599 32.0883 67.3019 33.5 67.3018H98.1855Z" fill="white" stroke="#CCCCCC" stroke-width="0.2"/>
<path d="M41.0037 75.6639C42.3767 75.6639 43.4897 74.5375 43.4897 73.1479C43.4897 71.7583 42.3767 70.6318 41.0037 70.6318C39.6306 70.6318 38.5176 71.7583 38.5176 73.1479C38.5176 74.5375 39.6306 75.6639 41.0037 75.6639Z" fill="#F67F20"/>
<path d="M47.7224 75.6639C49.0954 75.6639 50.2085 74.5375 50.2085 73.1479C50.2085 71.7583 49.0954 70.6318 47.7224 70.6318C46.3494 70.6318 45.2363 71.7583 45.2363 73.1479C45.2363 74.5375 46.3494 75.6639 47.7224 75.6639Z" fill="#F67F20"/>
<path d="M54.4187 75.6639C55.7917 75.6639 56.9048 74.5375 56.9048 73.1479C56.9048 71.7583 55.7917 70.6318 54.4187 70.6318C53.0457 70.6318 51.9326 71.7583 51.9326 73.1479C51.9326 74.5375 53.0457 75.6639 54.4187 75.6639Z" fill="#F67F20"/>
<path d="M61.1306 75.6639C62.5036 75.6639 63.6167 74.5375 63.6167 73.1479C63.6167 71.7583 62.5036 70.6318 61.1306 70.6318C59.7576 70.6318 58.6445 71.7583 58.6445 73.1479C58.6445 74.5375 59.7576 75.6639 61.1306 75.6639Z" fill="#F67F20"/>
<path d="M68.3601 75.6639C69.7331 75.6639 70.8462 74.5375 70.8462 73.1479C70.8462 71.7583 69.7331 70.6318 68.3601 70.6318C66.9871 70.6318 65.874 71.7583 65.874 73.1479C65.874 74.5375 66.9871 75.6639 68.3601 75.6639Z" fill="#F67F20"/>
<path d="M75.0544 75.6639C76.4275 75.6639 77.5405 74.5375 77.5405 73.1479C77.5405 71.7583 76.4275 70.6318 75.0544 70.6318C73.6814 70.6318 72.5684 71.7583 72.5684 73.1479C72.5684 74.5375 73.6814 75.6639 75.0544 75.6639Z" fill="#F67F20"/>
<path d="M81.7664 75.6639C83.1394 75.6639 84.2524 74.5375 84.2524 73.1479C84.2524 71.7583 83.1394 70.6318 81.7664 70.6318C80.3933 70.6318 79.2803 71.7583 79.2803 73.1479C79.2803 74.5375 80.3933 75.6639 81.7664 75.6639Z" fill="#F67F20"/>
<path d="M88.4724 75.6639C89.8454 75.6639 90.9585 74.5375 90.9585 73.1479C90.9585 71.7583 89.8454 70.6318 88.4724 70.6318C87.0994 70.6318 85.9863 71.7583 85.9863 73.1479C85.9863 74.5375 87.0994 75.6639 88.4724 75.6639Z" fill="#F67F20"/>
<path d="M22.0184 33.6241C21.6328 33.6239 21.2556 33.5099 20.9331 33.2961C20.6106 33.0822 20.3566 32.7779 20.2024 32.4202L15.9201 22.4362C15.816 22.1944 15.76 21.9341 15.7552 21.6703C15.7505 21.4065 15.7971 21.1443 15.8925 20.8988C15.9878 20.6532 16.13 20.429 16.311 20.2391C16.4919 20.0492 16.7081 19.8972 16.9471 19.7918C17.1861 19.6864 17.4433 19.6297 17.7039 19.6248C17.9646 19.62 18.2236 19.6672 18.4663 19.7637C18.7089 19.8603 18.9304 20.0042 19.118 20.1873C19.3057 20.3705 19.4559 20.5892 19.5601 20.8311L23.8383 30.8191C23.9701 31.1247 24.0246 31.4586 23.9968 31.7909C23.969 32.1231 23.8599 32.4431 23.6792 32.7219C23.4986 33.0007 23.2521 33.2295 22.9621 33.3878C22.6722 33.546 22.3478 33.6286 22.0184 33.6281V33.6241Z" fill="#F67F20"/>
<path d="M2.79414 47.3114C2.26834 47.329 1.75719 47.1344 1.37313 46.7706C0.989061 46.4067 0.763549 45.9034 0.746198 45.3712C0.728846 44.8391 0.921078 44.3218 1.2806 43.9331C1.64013 43.5444 2.1375 43.3161 2.66329 43.2986L13.3887 42.5723C13.9145 42.5366 14.4328 42.7138 14.8295 43.0649C15.2262 43.4159 15.4688 43.9121 15.5041 44.4442C15.5393 44.9764 15.3642 45.5009 15.0173 45.9024C14.6704 46.3039 14.1802 46.5495 13.6544 46.5851L2.92499 47.3074L2.79414 47.3114Z" fill="#F67F20"/>
<path d="M14.2039 37.4371C13.812 37.4359 13.4294 37.3156 13.1056 37.092L4.19618 30.9764C3.77004 30.6737 3.47864 30.2135 3.38493 29.6952C3.29122 29.1769 3.40271 28.6421 3.69534 28.2063C3.98796 27.7705 4.43822 27.4687 4.94887 27.3661C5.45952 27.2634 5.98957 27.3682 6.42454 27.6578L15.3181 33.7733C15.6678 34.0149 15.932 34.3634 16.0718 34.7678C16.2117 35.1722 16.22 35.6113 16.0954 36.0209C15.9709 36.4304 15.7201 36.7888 15.3797 37.0437C15.0394 37.2985 14.6273 37.4364 14.2039 37.4371Z" fill="#F67F20"/>
<defs>
<filter id="filter0_d_64_363" x="6.6709" y="29.5527" width="127.454" height="95.0718" filterUnits="userSpaceOnUse" color-interpolation-filters="sRGB">
<feFlood flood-opacity="0" result="BackgroundImageFix"/>
<feColorMatrix in="SourceAlpha" type="matrix" values="0 0 0 0 0 0 0 0 0 0 0 0 0 0 0 0 0 0 127 0" result="hardAlpha"/>
<feOffset dx="4" dy="8"/>
<feGaussianBlur stdDeviation="8"/>
<feColorMatrix type="matrix" values="0 0 0 0 0.0666667 0 0 0 0 0.0941176 0 0 0 0 0.152941 0 0 0 0.08 0"/>
<feBlend mode="normal" in2="BackgroundImageFix" result="effect1_dropShadow_64_363"/>
<feBlend mode="normal" in="SourceGraphic" in2="effect1_dropShadow_64_363" result="shape"/>
</filter>
</defs>
</svg>
